# MagicaVoxel @ Ephtracy

# material
mtllib Uji.mtl
usemtl palette

# normals
vn -1 0 0
vn 1 0 0
vn 0 0 1
vn 0 0 -1
vn 0 -1 0
vn 0 1 0

# texcoords
vt 0.841797 0.5
vt 0.935547 0.5
vt 0.978516 0.5

# verts
v -9 0 6
v -9 0 -2
v -9 0 -9
v -9 1 7
v -9 1 6
v -9 2 7
v -9 2 6
v -9 3 6
v -9 3 -2
v -9 3 -9
v -8 0 8
v -8 0 6
v -8 1 9
v -8 1 8
v -8 1 7
v -8 1 6
v -8 2 9
v -8 2 8
v -8 2 7
v -8 2 6
v -8 3 8
v -8 3 6
v -7 0 10
v -7 0 8
v -7 1 11
v -7 1 10
v -7 1 9
v -7 1 8
v -7 2 11
v -7 2 10
v -7 2 9
v -7 2 8
v -7 3 10
v -7 3 8
v -6 0 11
v -6 0 10
v -6 1 11
v -6 1 10
v -6 2 11
v -6 2 10
v -6 3 11
v -6 3 10
v 5 0 7
v 5 0 -2
v 5 0 -9
v 5 3 7
v 5 3 -2
v 5 3 -9
v -5 0 7
v -5 0 -2
v -5 0 -9
v -5 3 7
v -5 3 -2
v -5 3 -9
v 6 0 11
v 6 0 10
v 6 1 11
v 6 1 10
v 6 2 11
v 6 2 10
v 6 3 11
v 6 3 10
v 7 0 10
v 7 0 8
v 7 1 11
v 7 1 10
v 7 1 9
v 7 1 8
v 7 2 11
v 7 2 10
v 7 2 9
v 7 2 8
v 7 3 10
v 7 3 8
v 8 0 8
v 8 0 6
v 8 1 9
v 8 1 8
v 8 1 7
v 8 1 6
v 8 2 9
v 8 2 8
v 8 2 7
v 8 2 6
v 8 3 8
v 8 3 6
v 9 0 6
v 9 0 -2
v 9 0 -9
v 9 1 7
v 9 1 6
v 9 2 7
v 9 2 6
v 9 3 6
v 9 3 -2
v 9 3 -9
v -7 1 11
v -7 2 11
v -6 0 11
v -6 1 11
v -6 2 11
v -6 3 11
v 6 0 11
v 6 1 11
v 6 2 11
v 6 3 11
v 7 1 11
v 7 2 11
v -7 0 10
v -7 1 10
v -7 2 10
v -7 3 10
v -6 0 10
v -6 1 10
v -6 2 10
v -6 3 10
v 6 0 10
v 6 1 10
v 6 2 10
v 6 3 10
v 7 0 10
v 7 1 10
v 7 2 10
v 7 3 10
v -8 1 9
v -8 2 9
v -7 1 9
v -7 2 9
v 7 1 9
v 7 2 9
v 8 1 9
v 8 2 9
v -8 0 8
v -8 1 8
v -8 2 8
v -8 3 8
v -7 0 8
v -7 1 8
v -7 2 8
v -7 3 8
v 7 0 8
v 7 1 8
v 7 2 8
v 7 3 8
v 8 0 8
v 8 1 8
v 8 2 8
v 8 3 8
v -9 1 7
v -9 2 7
v -8 1 7
v -8 2 7
v 8 1 7
v 8 2 7
v 9 1 7
v 9 2 7
v -9 0 6
v -9 1 6
v -9 2 6
v -9 3 6
v -8 0 6
v -8 1 6
v -8 2 6
v -8 3 6
v 8 0 6
v 8 1 6
v 8 2 6
v 8 3 6
v 9 0 6
v 9 1 6
v 9 2 6
v 9 3 6
v -5 0 7
v -5 3 7
v 5 0 7
v 5 3 7
v -9 0 -9
v -9 3 -9
v -5 0 -9
v -5 3 -9
v 5 0 -9
v 5 3 -9
v 9 0 -9
v 9 3 -9
v -6 0 11
v 6 0 11
v -7 0 10
v -6 0 10
v 6 0 10
v 7 0 10
v -8 0 8
v -7 0 8
v 7 0 8
v 8 0 8
v -5 0 7
v 5 0 7
v -9 0 6
v -8 0 6
v 8 0 6
v 9 0 6
v -9 0 -2
v -5 0 -2
v 5 0 -2
v 9 0 -2
v -9 0 -9
v -5 0 -9
v 5 0 -9
v 9 0 -9
v -7 1 11
v -6 1 11
v 6 1 11
v 7 1 11
v -7 1 10
v -6 1 10
v 6 1 10
v 7 1 10
v -8 1 9
v -7 1 9
v 7 1 9
v 8 1 9
v -8 1 8
v -7 1 8
v 7 1 8
v 8 1 8
v -9 1 7
v -8 1 7
v 8 1 7
v 9 1 7
v -9 1 6
v -8 1 6
v 8 1 6
v 9 1 6
v -7 2 11
v -6 2 11
v 6 2 11
v 7 2 11
v -7 2 10
v -6 2 10
v 6 2 10
v 7 2 10
v -8 2 9
v -7 2 9
v 7 2 9
v 8 2 9
v -8 2 8
v -7 2 8
v 7 2 8
v 8 2 8
v -9 2 7
v -8 2 7
v 8 2 7
v 9 2 7
v -9 2 6
v -8 2 6
v 8 2 6
v 9 2 6
v -6 3 11
v 6 3 11
v -7 3 10
v -6 3 10
v 6 3 10
v 7 3 10
v -8 3 8
v -7 3 8
v 7 3 8
v 8 3 8
v -5 3 7
v 5 3 7
v -9 3 6
v -8 3 6
v 8 3 6
v 9 3 6
v -9 3 -2
v -5 3 -2
v 5 3 -2
v 9 3 -2
v -9 3 -9
v -5 3 -9
v 5 3 -9
v 9 3 -9

# faces
f 5/3/1 2/3/1 1/3/1
f 6/3/1 5/3/1 4/3/1
f 7/3/1 2/3/1 5/3/1
f 7/3/1 5/3/1 6/3/1
f 8/3/1 2/3/1 7/3/1
f 9/1/1 3/1/1 2/1/1
f 9/3/1 2/3/1 8/3/1
f 10/1/1 3/1/1 9/1/1
f 14/3/1 12/3/1 11/3/1
f 15/3/1 12/3/1 14/3/1
f 16/3/1 12/3/1 15/3/1
f 17/3/1 14/3/1 13/3/1
f 17/3/1 15/3/1 14/3/1
f 18/3/1 15/3/1 17/3/1
f 19/3/1 15/3/1 18/3/1
f 21/3/1 20/3/1 19/3/1
f 21/3/1 19/3/1 18/3/1
f 22/3/1 20/3/1 21/3/1
f 26/3/1 24/3/1 23/3/1
f 27/3/1 24/3/1 26/3/1
f 28/3/1 24/3/1 27/3/1
f 29/3/1 26/3/1 25/3/1
f 29/3/1 27/3/1 26/3/1
f 30/3/1 27/3/1 29/3/1
f 31/3/1 27/3/1 30/3/1
f 33/3/1 32/3/1 31/3/1
f 33/3/1 31/3/1 30/3/1
f 34/3/1 32/3/1 33/3/1
f 37/3/1 36/3/1 35/3/1
f 38/3/1 36/3/1 37/3/1
f 41/3/1 40/3/1 39/3/1
f 42/3/1 40/3/1 41/3/1
f 46/3/1 44/3/1 43/3/1
f 47/2/1 45/2/1 44/2/1
f 47/3/1 44/3/1 46/3/1
f 48/2/1 45/2/1 47/2/1
f 49/3/2 50/3/2 52/3/2
f 50/1/2 51/1/2 53/1/2
f 52/3/2 50/3/2 53/3/2
f 53/1/2 51/1/2 54/1/2
f 55/3/2 56/3/2 57/3/2
f 57/3/2 56/3/2 58/3/2
f 59/3/2 60/3/2 61/3/2
f 61/3/2 60/3/2 62/3/2
f 63/3/2 64/3/2 66/3/2
f 66/3/2 64/3/2 67/3/2
f 67/3/2 64/3/2 68/3/2
f 65/3/2 66/3/2 69/3/2
f 66/3/2 67/3/2 69/3/2
f 69/3/2 67/3/2 70/3/2
f 70/3/2 67/3/2 71/3/2
f 71/3/2 72/3/2 73/3/2
f 70/3/2 71/3/2 73/3/2
f 73/3/2 72/3/2 74/3/2
f 75/3/2 76/3/2 78/3/2
f 78/3/2 76/3/2 79/3/2
f 79/3/2 76/3/2 80/3/2
f 77/3/2 78/3/2 81/3/2
f 78/3/2 79/3/2 81/3/2
f 81/3/2 79/3/2 82/3/2
f 82/3/2 79/3/2 83/3/2
f 83/3/2 84/3/2 85/3/2
f 82/3/2 83/3/2 85/3/2
f 85/3/2 84/3/2 86/3/2
f 87/3/2 88/3/2 91/3/2
f 90/3/2 91/3/2 92/3/2
f 91/3/2 88/3/2 93/3/2
f 92/3/2 91/3/2 93/3/2
f 93/3/2 88/3/2 94/3/2
f 88/2/2 89/2/2 95/2/2
f 94/3/2 88/3/2 95/3/2
f 95/2/2 89/2/2 96/2/2
f 100/3/3 98/3/3 97/3/3
f 101/3/3 98/3/3 100/3/3
f 103/3/3 100/3/3 99/3/3
f 103/3/3 102/3/3 101/3/3
f 103/3/3 101/3/3 100/3/3
f 104/3/3 102/3/3 103/3/3
f 105/3/3 102/3/3 104/3/3
f 106/3/3 102/3/3 105/3/3
f 107/3/3 105/3/3 104/3/3
f 108/3/3 105/3/3 107/3/3
f 113/3/3 110/3/3 109/3/3
f 114/3/3 110/3/3 113/3/3
f 115/3/3 112/3/3 111/3/3
f 116/3/3 112/3/3 115/3/3
f 121/3/3 118/3/3 117/3/3
f 122/3/3 118/3/3 121/3/3
f 123/3/3 120/3/3 119/3/3
f 124/3/3 120/3/3 123/3/3
f 127/3/3 126/3/3 125/3/3
f 128/3/3 126/3/3 127/3/3
f 131/3/3 130/3/3 129/3/3
f 132/3/3 130/3/3 131/3/3
f 137/3/3 134/3/3 133/3/3
f 138/3/3 134/3/3 137/3/3
f 139/3/3 136/3/3 135/3/3
f 140/3/3 136/3/3 139/3/3
f 145/3/3 142/3/3 141/3/3
f 146/3/3 142/3/3 145/3/3
f 147/3/3 144/3/3 143/3/3
f 148/3/3 144/3/3 147/3/3
f 151/3/3 150/3/3 149/3/3
f 152/3/3 150/3/3 151/3/3
f 155/3/3 154/3/3 153/3/3
f 156/3/3 154/3/3 155/3/3
f 161/3/3 158/3/3 157/3/3
f 162/3/3 158/3/3 161/3/3
f 163/3/3 160/3/3 159/3/3
f 164/3/3 160/3/3 163/3/3
f 169/3/3 166/3/3 165/3/3
f 170/3/3 166/3/3 169/3/3
f 171/3/3 168/3/3 167/3/3
f 172/3/3 168/3/3 171/3/3
f 173/3/4 174/3/4 175/3/4
f 175/3/4 174/3/4 176/3/4
f 177/1/4 178/1/4 179/1/4
f 179/1/4 178/1/4 180/1/4
f 181/2/4 182/2/4 183/2/4
f 183/2/4 182/2/4 184/2/4
f 188/3/5 186/3/5 185/3/5
f 189/3/5 186/3/5 188/3/5
f 192/3/5 188/3/5 187/3/5
f 192/3/5 190/3/5 189/3/5
f 192/3/5 189/3/5 188/3/5
f 193/3/5 190/3/5 192/3/5
f 195/3/5 192/3/5 191/3/5
f 195/3/5 194/3/5 193/3/5
f 195/3/5 193/3/5 192/3/5
f 196/3/5 194/3/5 195/3/5
f 198/3/5 195/3/5 191/3/5
f 199/3/5 194/3/5 196/3/5
f 201/3/5 198/3/5 197/3/5
f 202/3/5 195/3/5 198/3/5
f 202/3/5 198/3/5 201/3/5
f 203/3/5 200/3/5 199/3/5
f 203/3/5 199/3/5 196/3/5
f 204/3/5 200/3/5 203/3/5
f 205/1/5 202/1/5 201/1/5
f 206/1/5 202/1/5 205/1/5
f 207/2/5 204/2/5 203/2/5
f 208/2/5 204/2/5 207/2/5
f 213/3/5 210/3/5 209/3/5
f 214/3/5 210/3/5 213/3/5
f 215/3/5 212/3/5 211/3/5
f 216/3/5 212/3/5 215/3/5
f 221/3/5 218/3/5 217/3/5
f 222/3/5 218/3/5 221/3/5
f 223/3/5 220/3/5 219/3/5
f 224/3/5 220/3/5 223/3/5
f 229/3/5 226/3/5 225/3/5
f 230/3/5 226/3/5 229/3/5
f 231/3/5 228/3/5 227/3/5
f 232/3/5 228/3/5 231/3/5
f 233/3/6 234/3/6 237/3/6
f 237/3/6 234/3/6 238/3/6
f 235/3/6 236/3/6 239/3/6
f 239/3/6 236/3/6 240/3/6
f 241/3/6 242/3/6 245/3/6
f 245/3/6 242/3/6 246/3/6
f 243/3/6 244/3/6 247/3/6
f 247/3/6 244/3/6 248/3/6
f 249/3/6 250/3/6 253/3/6
f 253/3/6 250/3/6 254/3/6
f 251/3/6 252/3/6 255/3/6
f 255/3/6 252/3/6 256/3/6
f 257/3/6 258/3/6 260/3/6
f 260/3/6 258/3/6 261/3/6
f 259/3/6 260/3/6 264/3/6
f 261/3/6 262/3/6 264/3/6
f 260/3/6 261/3/6 264/3/6
f 264/3/6 262/3/6 265/3/6
f 263/3/6 264/3/6 267/3/6
f 265/3/6 266/3/6 267/3/6
f 264/3/6 265/3/6 267/3/6
f 267/3/6 266/3/6 268/3/6
f 263/3/6 267/3/6 270/3/6
f 268/3/6 266/3/6 271/3/6
f 269/3/6 270/3/6 273/3/6
f 270/3/6 267/3/6 274/3/6
f 273/3/6 270/3/6 274/3/6
f 271/3/6 272/3/6 275/3/6
f 268/3/6 271/3/6 275/3/6
f 275/3/6 272/3/6 276/3/6
f 273/1/6 274/1/6 277/1/6
f 277/1/6 274/1/6 278/1/6
f 275/2/6 276/2/6 279/2/6
f 279/2/6 276/2/6 280/2/6
